<svg id="Capa_1" enable-background="new 0 0 512 512" height="512" viewBox="0 0 512 512" width="512" xmlns="http://www.w3.org/2000/svg"><g><path d="m256 0c-107.401 0-195 88.599-195 196 0 42.299 13.5 82.8 39 116.7l144 193.299c2.701 3.9 7.202 6 12.001 6s9.3-2.1 12.001-6l143.998-193.299c25.499-33.9 39-74.401 39-116.7 0-107.401-87.599-196-195-196z" fill="#ff6b6b"/><path d="m451 196c0 42.299-13.5 82.8-39 116.7l-143.999 193.3c-2.701 3.9-7.202 6-12.001 6v-512c107.401 0 195 88.599 195 196z" fill="#e62e77"/><path d="m256 61c-74.399 0-135 60.599-135 135 0 74.399 60.601 135 135 135s135-60.601 135-135c0-74.401-60.601-135-135-135z" fill="#f3f5f9"/><path d="m391 196c0 74.399-60.601 135-135 135v-270c74.399 0 135 60.599 135 135z" fill="#e2dff4"/><path d="m301 166v60c0 8.399-6.599 15-15 15s-15-6.601-15-15v-15h-30v15c0 8.399-6.599 15-15 15s-15-6.601-15-15v-60c0-8.401 6.599-15 15-15s15 6.599 15 15v15h30v-15c0-8.401 6.599-15 15-15s15 6.599 15 15z" fill="#ff6b6b"/><path d="m301 166v60c0 8.399-6.599 15-15 15s-15-6.601-15-15v-15h-15v-30h15v-15c0-8.401 6.599-15 15-15s15 6.599 15 15z" fill="#e62e77"/></g></svg>