<svg id="Capa_1" enable-background="new 0 0 512 512" height="512" viewBox="0 0 512 512" width="512" xmlns="http://www.w3.org/2000/svg"><g><path d="m24 223.014c3.839 0 7.678-1.465 10.606-4.394l54.394-54.393v19.787c0 8.284 6.716 15 15 15s15-6.716 15-15v-56c0-7.026-4.847-12.887-11.292-14.519-2.687-.687 1.159-.481-59.708-.481-8.284 0-15 6.716-15 15s6.716 15 15 15h19.787l-54.394 54.394c-9.478 9.477-2.635 25.606 10.607 25.606z"/><path d="m512 160.014v-32c0-8.284-6.716-15-15-15h-97c-8.284 0-15 6.716-15 15v32z"/><path d="m0 365.014v19c0 8.284 6.716 15 15 15h482c8.284 0 15-6.716 15-15v-34h-497c-8.284 0-15 6.716-15 15z"/><path d="m512 271.014v49h-383v-34c0-8.284 6.716-15 15-15z"/><path d="m512 190.014v51h-255v-36c0-8.284 6.716-15 15-15z"/></g></svg>